<?xml version="1.0" encoding="UTF-8"?>
<svg width="1936px" height="1215px" viewBox="0 0 1936 1215" version="1.1" xmlns="http://www.w3.org/2000/svg" xmlns:xlink="http://www.w3.org/1999/xlink">
    <!-- Generator: Sketch 53.2 (72643) - https://sketchapp.com -->
    <title>Desktop HD Copy</title>
    <desc>Created with Sketch.</desc>
    <g id="Desktop-HD-Copy" stroke="none" stroke-width="1" fill="none" fill-rule="evenodd">
        <rect fill="#FFFFFF" x="0" y="0" width="1936" height="1215"></rect>
        <g id="Group-4" transform="translate(381.000000, 347.000000)" opacity="0.468866257">
            <g id="Layer_14" transform="translate(0.500000, 0.000000)">
                <path d="M1086.12047,142.404364 L1069.4436,142.404364 C1068.80708,131.069743 1059.64116,122.027518 1048.43838,122.027518 C1045.25577,122.027518 1042.20047,122.79165 1039.52707,124.065202 C1039.01786,114.3862 1031.76151,106.744883 1022.97751,106.744883 C1014.32081,106.744883 1007.31907,114.004135 1006.42794,123.428426 C1003.49994,121.772807 1000.06273,120.753965 996.370899,120.753965 C984.786203,120.753965 975.365681,130.432967 975.365681,142.404364 L960.089159,142.404364" id="Path" stroke="#00CFFF" stroke-width="2.54561089" stroke-linecap="round" stroke-linejoin="round"></path>
                <path d="M1074.53577,147.498576 C1073.89925,136.163955 1064.73334,127.121729 1053.53055,127.121729 C1050.34794,127.121729 1047.29264,127.885861 1044.61925,129.159414 C1044.11003,119.480412 1036.85368,111.839095 1028.06968,111.839095 C1019.41299,111.839095 1012.41125,119.098346 1011.52012,128.522638 C1008.59212,126.867019 1005.1549,125.848177 1001.46307,125.848177 C989.878377,125.848177 980.457855,135.527179 980.457855,147.498576" id="Path" fill="#00CFFF" fill-rule="nonzero" opacity="0.2"></path>
                <path d="M0,104.197777 L16.67687,104.197777 C17.3133917,92.8631564 26.479305,83.8209309 37.6820879,83.8209309 C40.8646967,83.8209309 43.9200011,84.5850626 46.5933925,85.8586155 C47.1026099,76.1796135 54.3589579,68.5382961 63.1429581,68.5382961 C71.799654,68.5382961 78.8013933,75.7975476 79.6925238,85.221839 C82.6205238,83.5662203 86.0577413,82.547378 89.7495675,82.547378 C101.334263,82.547378 110.754785,92.22638 110.754785,104.197777 L126.031308,104.197777" id="Path" stroke="#00CFFF" stroke-width="2.54561089" stroke-linecap="round" stroke-linejoin="round"></path>
                <path d="M22.4591539,109.291989 C23.0956756,97.957368 32.2615889,88.9151425 43.4643718,88.9151425 C46.6469806,88.9151425 49.702285,89.6792742 52.3756764,90.9528271 C52.8848938,81.2738251 60.1412418,73.6325077 68.925242,73.6325077 C77.5819379,73.6325077 84.5836772,80.8917592 85.4748076,90.3160506 C88.4028077,88.6604319 91.8400252,87.6415896 95.5318514,87.6415896 C107.116547,87.6415896 116.537069,97.3205916 116.537069,109.291989" id="Path" fill="#00CFFF" fill-rule="nonzero" opacity="0.2"></path>
                <path d="M282.082879,59.1540306 C285.392792,48.4561862 295.322531,40.8148688 307.034532,40.8148688 C316.836967,40.8148688 325.493663,46.2911463 329.949315,54.3145295 C333.768445,52.1494896 338.096793,51.003292 342.67975,51.003292 C352.482185,51.003292 361.011576,56.4795695 365.467229,64.5029527 C369.286359,60.9370046 374.505838,58.6446094 380.234533,58.6446094 C392.201142,58.6446094 401.876273,68.3236114 401.876273,80.2950087 C401.876273,80.6770746 401.876273,81.1864957 401.876273,81.5685616 L415.879752,81.5685616" id="Path" stroke="#00CFFF" stroke-width="2.54561089" stroke-linecap="round" stroke-linejoin="round"></path>
                <path d="M1172.72081,87.9363261 L1157.44429,87.9363261 C1157.44429,75.3281524 1147.89646,65.0123739 1136.18446,65.0123739 C1134.65681,65.0123739 1133.00185,65.1397292 1131.60151,65.5217951 C1128.5462,54.8239507 1119.38029,47.1826333 1108.43211,47.1826333 C1099.2662,47.1826333 1091.24603,52.6589108 1087.17229,60.682294 C1083.60777,58.5172541 1079.66133,57.3710565 1075.33298,57.3710565 C1066.16707,57.3710565 1058.2742,62.847334 1054.07316,70.8707172 C1050.50864,67.3047691 1045.67107,65.0123739 1040.32429,65.0123739 C1029.24881,65.0123739 1020.2102,74.6913759 1020.2102,86.6627732 C1020.2102,87.0448391 1020.2102,87.5542602 1020.2102,87.9363261 L1007.22516,87.9363261" id="Path" stroke="#00CFFF" stroke-width="2.54561089" stroke-linecap="round" stroke-linejoin="round"></path>
                <path d="M1162.53646,91.7569848 C1162.53646,79.1488111 1152.98864,68.8330326 1141.27664,68.8330326 C1139.74899,68.8330326 1138.09403,68.9603879 1136.69368,69.3424538 C1133.63838,58.6446094 1124.47246,51.003292 1113.52429,51.003292 C1104.35838,51.003292 1096.3382,56.4795695 1092.26446,64.5029527 C1088.69994,62.3379128 1084.75351,61.1917152 1080.42516,61.1917152 C1071.25924,61.1917152 1063.36637,66.6679927 1059.16533,74.6913759 C1055.60081,71.1254278 1050.76324,68.8330326 1045.41646,68.8330326 C1034.34098,68.8330326 1025.30237,78.5120346 1025.30237,90.4834319 C1025.30237,90.8654978 1025.30237,91.3749189 1025.30237,91.7569848" id="Path" fill="#00CFFF" fill-rule="nonzero" opacity="0.2"></path>
                <path d="M208.37366,93.0305377 L225.177834,93.0305377 C225.814356,83.3515356 235.107573,75.582863 246.437661,75.582863 C249.620269,75.582863 252.675574,76.2196394 255.476269,77.365837 C255.985487,69.0877432 263.369139,62.4652681 272.280444,62.4652681 C280.93714,62.4652681 288.193488,68.7056773 288.957314,76.7290606 C292.012618,75.3281524 295.449836,74.4366653 299.141662,74.4366653 C310.853662,74.4366653 320.401488,82.7147592 320.401488,93.0305377 L333.131924,93.0305377" id="Path" stroke="#00CFFF" stroke-width="2.54561089" stroke-linecap="round" stroke-linejoin="round"></path>
                <path d="M227.723921,99.3983022 C228.360443,89.7193001 237.65366,81.9506275 248.983748,81.9506275 C252.166356,81.9506275 255.221661,82.5874039 258.022356,83.7336015 C258.531574,75.4555077 265.915226,68.8330326 274.826531,68.8330326 C283.483227,68.8330326 290.739575,75.0734418 291.503401,83.0968251 C294.558705,81.6959169 297.995923,80.8044298 301.687749,80.8044298 C313.399749,80.8044298 322.947575,89.0825237 322.947575,99.3983022" id="Path" fill="#00CFFF" fill-rule="nonzero" opacity="0.2"></path>
                <path d="M386.599751,62.4652681 C380.871055,62.4652681 375.778881,64.630308 371.832446,68.3236114 C367.376794,60.3002282 358.847402,54.8239507 349.044967,54.8239507 C344.334706,54.8239507 340.006359,56.0975036 336.314532,58.1351882 C331.85888,50.111805 323.329489,44.6355275 313.399749,44.6355275 C301.687749,44.6355275 291.758009,52.4042002 288.448096,62.9746893 L285.520096,67.686835 C290.866879,69.9792302 294.68601,74.8187312 295.195227,80.5497193 C298.250531,79.1488111 301.687749,78.257324 305.379575,78.257324 C312.126706,78.257324 318.237315,81.0591404 322.056445,85.3892203 L408.241491,85.3892203 C408.241491,85.0071544 408.241491,84.4977333 408.241491,84.1156674 C408.241491,72.1442701 398.56636,62.4652681 386.599751,62.4652681 Z" id="Path" fill="#00CFFF" fill-rule="nonzero" opacity="0.2"></path>
                <path d="M270.863403,2.51367504 C271.881837,2.76838562 272.900272,3.15045148 273.918707,3.53251735 C273.918707,2.64103033 274.173316,1.87689859 274.30062,1.11276685 L270.863403,2.51367504 Z" id="Path" fill="#00CFFF" fill-rule="nonzero" opacity="0.2"></path>
                <path d="M740.114037,108.313172 L759.20969,108.313172 C759.973516,96.9785517 770.412473,87.9363261 783.397517,87.9363261 C787.089343,87.9363261 790.52656,88.7004578 793.581865,89.9740107 C794.218386,80.2950087 802.493169,72.6536913 812.677517,72.6536913 C822.607257,72.6536913 830.754735,79.9129428 831.645866,89.3372343 C835.083083,87.6816155 839.029518,86.6627732 843.230562,86.6627732 C856.597518,86.6627732 867.418388,96.3417752 867.418388,108.313172 L883.967954,108.313172" id="Path" stroke="#00CFFF" stroke-width="2.54561089" stroke-linecap="round" stroke-linejoin="round"></path>
                <path d="M765.574907,112.133831 C766.338733,100.79921 776.77769,91.7569848 789.762734,91.7569848 C793.45456,91.7569848 796.891778,92.5211165 799.947082,93.7946694 C800.583604,84.1156674 808.858387,76.47435 819.042735,76.47435 C828.972474,76.47435 837.119953,83.7336015 838.011083,93.157893 C841.448301,91.5022742 845.394735,90.4834319 849.595779,90.4834319 C862.962736,90.4834319 873.783606,100.162434 873.783606,112.133831" id="Path" fill="#00CFFF" fill-rule="nonzero" opacity="0.2"></path>
                <path d="M409.407358,143.532368 L424.047358,143.532368 C426.593445,133.980721 436.141272,126.976181 447.598663,126.976181 C451.29049,126.976181 454.727707,127.740312 457.783011,129.013865 C458.419533,119.334863 466.694316,111.693546 476.878664,111.693546 C486.808404,111.693546 494.955882,118.952797 495.847012,128.377089 C499.28423,126.72147 503.230665,125.702628 507.431708,125.702628 C520.798665,125.702628 531.619535,132.834524 531.619535,144.805921" id="Path" stroke="#00CFFF" stroke-width="2.54561089" stroke-linecap="round" stroke-linejoin="round"></path>
                <path d="M430.412576,144.180061 C432.958663,135.543693 442.506489,128.05884 453.963881,128.05884 C457.655707,128.05884 461.092925,128.74975 464.148229,129.901266 C464.784751,121.149746 473.059534,114.240652 483.243882,114.240652 C493.173621,114.240652 501.3211,120.804291 502.21223,129.325508 C505.649447,127.828537 509.595882,126.907325 513.796926,126.907325 C527.163883,126.907325 537.984753,132.204297 537.984753,143.028545" id="Path" fill="#00CFFF" fill-rule="nonzero" opacity="0.2"></path>
            </g>
        </g>
    </g>
</svg>